<?xml version="1.0" encoding="UTF-8"?>
<svg width="310px" height="86px" viewBox="0 0 310 86" version="1.1" xmlns="http://www.w3.org/2000/svg" xmlns:xlink="http://www.w3.org/1999/xlink">
    <!-- Generator: Sketch 44.1 (41455) - http://www.bohemiancoding.com/sketch -->
    <title>Group</title>
    <desc>Created with Sketch.</desc>
    <defs>
        <path d="M0.462687557,20.488197 L0.462687557,20.488197 C0.462687557,19.4202413 1.0304274,18.4328041 1.95338417,17.8955143 L1.95338417,17.8955143 L30.4235433,1.32190564 C31.3549183,0.779715363 32.5055492,0.778756438 33.4378266,1.31939356 L45.0592406,8.05876993 C45.1345689,8.10245359 45.1971827,8.16505273 45.2408841,8.2403708 C45.3794698,8.47921933 45.2981907,8.78519021 45.0593422,8.9237759 L14.4972002,26.6566691 C14.3430249,26.7461254 14.2481318,26.9108943 14.2481318,27.0891426 L14.2481318,27.0891426 L14.2481318,35.0720629 C14.2481318,35.1604802 14.224686,35.2473163 14.1801846,35.3237182 C14.0411992,35.5623344 13.7350927,35.6431011 13.4964765,35.5041157 L13.4964765,35.5041157 L7.08810478,31.7714681 C7.0117029,31.7269667 6.92486678,31.7035208 6.83644947,31.7035208 C6.5603071,31.7035208 6.33644947,31.9273785 6.33644947,32.2035208 L6.33644947,32.2035208 L6.33644947,51.4170556 C6.33644947,51.595613 6.43166919,51.7606188 6.58626675,51.8499628 L6.58626675,51.8499628 L13.9983145,56.1334822 C14.1529121,56.2228262 14.2481318,56.387832 14.2481318,56.5663894 L14.2481318,56.5663894 L14.2481318,62.4380396 C14.2481318,62.5265222 14.2246513,62.6134201 14.1800876,62.6898613 C14.0410104,62.9284239 13.7348728,63.0090727 13.4963101,62.8699954 L1.9517575,56.1397504 C1.02971882,55.6022202 0.462687557,54.6152989 0.462687557,53.5480154 L0.462687557,53.5480154 L0.462687557,20.488197 Z M18.1393637,65.2961329 L18.1393637,29.3588866 C18.1393637,29.1802901 18.2346248,29.0152543 18.3892758,28.9259247 L31.6617239,21.2594815 L31.6617239,21.2594815 C31.8171339,21.1697134 32.0087347,21.170125 32.1637576,21.26056 L45.4386898,29.0046968 L45.4386898,29.0046968 C45.5922928,29.0943035 45.6867439,29.258751 45.6867439,29.4365802 L45.6867439,65.2979133 C45.6867439,65.4762527 45.5917546,65.6410916 45.4374547,65.7305148 L40.5975724,68.5354302 C40.3586531,68.6738939 40.0527238,68.5924587 39.91426,68.3535394 C39.8701115,68.2773611 39.8468616,68.1908754 39.8468616,68.1028286 L39.8468616,49.353144 L39.8468616,49.353144 C39.8468616,49.0770016 39.6230039,48.853144 39.3468616,48.853144 C39.2582397,48.853144 39.1712101,48.8766984 39.0946853,48.9213951 L32.1827507,52.958523 L32.1827507,52.958523 C32.0266177,53.0497173 31.8334136,53.0495108 31.6774758,52.9579829 L24.8048669,48.9240957 C24.5667168,48.7843132 24.2603419,48.8640558 24.1205594,49.1022059 C24.0755157,49.1789477 24.0517683,49.2663201 24.0517683,49.3553046 L24.0517683,68.108157 C24.0517683,68.3842994 23.8279106,68.608157 23.5517683,68.608157 C23.4646264,68.608157 23.3789977,68.5853824 23.3033702,68.5420907 L18.3909656,65.7300666 C18.235363,65.6409944 18.1393637,65.475426 18.1393637,65.2961329 L18.1393637,65.2961329 Z M63.3849309,20.4299404 L63.3849309,27.542888 C63.3849309,27.7199493 63.2912871,27.8838064 63.1387327,27.9736834 L55.7557462,32.3233492 C55.6031918,32.4132261 55.5095481,32.5770832 55.5095481,32.7541445 L55.5095481,38.379244 L55.5095481,38.379244 C55.5095481,38.6553864 55.7334057,38.879244 56.0095481,38.879244 C56.0974677,38.879244 56.183833,38.8560612 56.2599344,38.8120334 L62.6345445,35.1240605 L62.6345445,35.1240605 C62.8735675,34.9857759 63.1794357,35.0674405 63.3177203,35.3064635 C63.361748,35.3825649 63.3849309,35.4689302 63.3849309,35.5568499 L63.3849309,53.542368 C63.3849309,54.6104847 62.8170213,55.5980454 61.8938446,56.1352774 L50.3956072,62.8265442 L50.3956072,62.8265442 C50.1569365,62.9654359 49.8508617,62.884549 49.71197,62.6458783 C49.6675322,62.5695165 49.6441216,62.4827434 49.6441216,62.3943926 L49.6441216,56.7067767 L49.6441216,56.7067767 C49.6441216,56.5284532 49.7390941,56.3636266 49.8933721,56.2741975 L57.257962,52.0052281 L57.257962,52.0052281 C57.41224,51.915799 57.5072125,51.7509724 57.5072125,51.5726489 L57.5072125,45.8661968 C57.5072125,45.5900544 57.2833549,45.3661968 57.0072125,45.3661968 C56.9189175,45.3661968 56.832197,45.3895779 56.7558687,45.4339627 L50.3954653,49.1325319 L50.3954653,49.1325319 C50.156749,49.2713452 49.8507008,49.1903579 49.7118875,48.9516416 C49.6675027,48.8753133 49.6441216,48.7885929 49.6441216,48.7002978 L49.6441216,27.1439621 C49.6441216,26.9660265 49.5495584,26.8014974 49.3958101,26.7119287 L36.5250227,19.2138308 C36.2864173,19.0748271 36.2056741,18.7687143 36.3446778,18.5301088 C36.388249,18.4553172 36.4504899,18.3931176 36.5253106,18.3495963 L49.3928451,10.8648701 L49.3928451,10.8648701 C49.5481896,10.7745101 49.7400775,10.7744689 49.8954608,10.8647622 L61.8922208,17.8360867 C62.8163137,18.3730776 63.3849309,19.3611529 63.3849309,20.4299404 L63.3849309,20.4299404 Z" id="path-1"></path>
    </defs>
    <g id="Page-1" stroke="none" stroke-width="1" fill="none" fill-rule="evenodd">
        <g id="Artboard-Copy-3" transform="translate(-88.000000, -84.000000)">
            <g id="Group" transform="translate(91.000000, 88.000000)">
                <path d="M103.044248,54.8043713 C101.656383,53.5342048 100.96246,51.6289836 100.96246,49.0886506 L100.96246,32.9501449 C100.96246,30.4098119 101.656383,28.5045907 103.044248,27.2344242 C104.432113,25.9642577 106.424342,25.3291839 109.020993,25.3291839 L115.064893,25.3291839 L115.064893,28.7362018 L108.573297,28.7362018 C107.468974,28.7362018 106.57359,29.0649458 105.887119,29.7224438 C105.200648,30.3799418 104.857418,31.1719161 104.857418,32.0983905 L104.857418,49.9404051 C104.857418,50.8668795 105.200648,51.6588538 105.887119,52.3163517 C106.57359,52.9738497 107.468974,53.3025937 108.573297,53.3025937 L112.692103,53.3025937 L112.692103,43.5746612 L108.931454,43.5746612 L108.931454,40.2124725 L116.407982,40.2124725 L116.407982,56.7096116 L109.020993,56.7096116 C106.424342,56.7096116 104.432113,56.0745379 103.044248,54.8043713 Z M135.086179,43.7091487 L131.101682,43.7091487 L131.101682,56.7096116 L127.206725,56.7096116 L127.206725,25.3291839 L135.220488,25.3291839 C137.757447,25.3291839 139.67506,25.8895431 140.973385,27.0102783 C142.271711,28.1310134 142.920864,29.9017484 142.920864,32.3225364 L142.920864,36.6261379 C142.920864,40.0032865 141.577789,42.110237 138.891598,42.9470526 L145.114576,56.7096116 L140.861461,56.7096116 L135.086179,43.7091487 Z M138.242438,29.4534687 C137.720123,28.9454021 136.891893,28.6913726 135.757724,28.6913726 L131.101682,28.6913726 L131.101682,40.34696 L135.757724,40.34696 C136.891893,40.34696 137.720123,40.0854591 138.242438,39.5624493 C138.764753,39.0394396 139.025907,38.210108 139.025907,37.0744297 L139.025907,31.9190737 C139.025907,30.7833954 138.764753,29.9615353 138.242438,29.4534687 Z M167.82204,56.7096116 L166.120794,48.7748463 L157.390717,48.7748463 L155.644701,56.7096116 L151.660204,56.7096116 L159.226271,25.3291839 L164.374779,25.3291839 L171.806537,56.7096116 L167.82204,56.7096116 Z M161.733371,28.28791 L158.107031,45.4126576 L165.40448,45.4126576 L161.733371,28.28791 Z M194.379692,42.7901505 C193.09629,43.9407719 191.201061,44.516074 188.693949,44.516074 L184.485604,44.516074 L184.485604,56.7096116 L180.590647,56.7096116 L180.590647,25.3291839 L188.60441,25.3291839 C191.141368,25.3291839 193.058982,25.8895431 194.357307,27.0102783 C195.655633,28.1310134 196.304786,29.9017484 196.304786,32.3225364 L196.304786,37.4330632 C196.304786,39.8538511 195.663095,41.639529 194.379692,42.7901505 Z M191.62636,29.4534687 C191.104045,28.9454021 190.275815,28.6913726 189.141646,28.6913726 L184.485604,28.6913726 L184.485604,41.1538853 L189.141646,41.1538853 C190.275815,41.1538853 191.104045,40.8923844 191.62636,40.3693746 C192.148675,39.8463649 192.409828,39.0170333 192.409828,37.881355 L192.409828,31.9190737 C192.409828,30.7833954 192.148675,29.9615353 191.62636,29.4534687 Z M219.549486,56.7096116 L219.549486,42.2746149 L210.326942,42.2746149 L210.326942,56.7096116 L206.431985,56.7096116 L206.431985,25.3291839 L210.326942,25.3291839 L210.326942,38.9572554 L219.549486,38.9572554 L219.549486,25.3291839 L223.444443,25.3291839 L223.444443,56.7096116 L219.549486,56.7096116 Z M249.056199,57.3613773 C248.817427,57.4237107 243.997233,57.4169271 243.639074,57.4169271 C241.93782,57.4169271 240.460437,57.4599079 239.206881,56.9924072 C237.953325,56.5249064 236.916173,55.6600431 236.095392,54.3977911 C235.274612,53.1355391 234.670228,51.3902292 234.282222,49.1618091 C233.894217,46.9333889 233.924063,34.0927882 234.371761,31.9578682 C234.81946,29.8229482 235.490998,28.1945118 236.386395,27.07251 C237.281792,25.9505083 238.386098,25.3025524 239.699347,24.9441352 C241.012596,24.585718 244.907545,24.6143718 245.38509,24.6611219 C247.435245,24.656599 248.658948,24.6669049 249.056199,24.6920396 L249.056199,30.0720426 C248.328839,30.0720426 244.444932,30.1087353 243.639074,30.1087353 C242.98245,30.1087353 242.366843,30.3149125 241.960213,30.5516016 C241.553584,30.7882907 241.117054,31.0917353 240.818588,31.8397365 C240.520122,32.5877377 240.296276,33.5863138 240.147043,35.0199827 C239.997811,36.4536516 239.990349,45.1958571 240.124659,46.6606927 C240.258968,48.1255283 240.467891,49.1708538 240.751433,49.9811884 C241.034976,50.791523 241.415514,51.3291408 241.893059,51.5940579 C242.370604,51.858975 242.992946,51.9914315 243.639074,51.9914315 C244.564318,51.9914315 248.502857,52.0281242 249.056199,52.0281242 L249.056199,57.3613773 Z M275.8377,57.3664059 L275.8377,31.1702062 L271.987512,45.4577683 L267.33147,45.4577683 L263.302204,31.1702062 L263.302204,57.3664059 L257.840309,57.3664059 L257.840309,24.6415184 L267.152392,24.6415184 L269.7938,37.2172251 L272.479977,24.6415184 L281.389133,24.6415184 L281.389133,57.3664059 L275.8377,57.3664059 Z M306.469388,47.6424393 C306.469388,49.8241094 306.208234,51.5772108 305.685919,52.9017962 C305.163604,54.2263816 304.447297,55.2470763 303.536977,55.9639107 C302.626657,56.6807452 301.537273,57.0559963 300.268794,57.2741633 C299.000315,57.4923304 297.619932,57.4169271 296.127604,57.4169271 C295.650059,57.4169271 290.334748,57.400438 289.770317,57.3613773 L289.770317,52.1671166 C290.195628,52.1671166 295.232209,52.1771737 295.679907,52.1771737 C297.082696,52.1771737 298.194464,51.8733028 299.015245,51.2655519 C299.836025,50.6578009 300.246409,49.60594 300.246409,48.1099377 C300.246409,47.2684364 300.164333,46.5516127 300.000177,45.9594451 C299.83602,45.3672775 299.58979,44.8842007 299.261478,44.5102001 C298.933165,44.1361995 298.530243,43.8401201 298.052698,43.6219531 C297.575153,43.4037861 297.037922,43.2323718 296.440991,43.1077049 C293.933879,42.5778707 292.150574,41.5649677 291.091021,40.0689653 C290.031467,38.572963 289.501699,36.4536581 289.501699,33.7109872 C289.501699,31.9656511 289.733006,30.5008375 290.195628,29.3165023 C290.65825,28.1321671 291.344711,27.1660134 292.255031,26.4180123 C293.165351,25.6700111 294.284581,25.3168784 295.612753,24.9896279 C296.940925,24.6623774 298.455674,24.6559969 300.15687,24.6832396 C300.706394,24.6920396 305.377908,24.6415184 305.708304,24.6465469 L305.708304,29.7978475 C305.262212,29.7978475 300.097179,29.8307505 299.709174,29.8307505 C298.425772,29.8307505 297.44085,30.0956636 296.754378,30.6254978 C296.067907,31.155332 295.724677,32.0124038 295.724677,33.196739 C295.724677,33.9447401 295.776908,34.5602735 295.881371,35.0433576 C295.985834,35.5264417 296.172372,35.9160198 296.440991,36.2121036 C296.70961,36.5081874 297.067764,36.7497258 297.515462,36.9367261 C297.963161,37.1237264 298.54516,37.2951408 299.261478,37.4509743 C300.335954,37.6691413 301.313415,38.0041785 302.193888,38.4560959 C303.074362,38.9080133 303.835438,39.5235467 304.477139,40.3027145 C305.118841,41.0818824 305.611302,42.0636192 305.954537,43.2479544 C306.297773,44.4322896 306.469388,45.8971032 306.469388,47.6424393 Z" id="Combined-Shape" fill="#FFFFFF"></path>
                <path d="M38.6938818,-0.794518802 L67.5187946,15.9431166 C69.8302166,17.2852799 71.2526791,19.7561361 71.2526791,22.4289762 L71.2526791,55.9638803 C71.2526791,58.6367204 69.8302166,61.1075766 67.5187946,62.4497399 L38.6938818,79.1873753 C36.3651968,80.5395626 33.4903358,80.5395626 31.1616507,79.1873753 L2.33673792,62.4497399 C0.0253159257,61.1075766 -1.39714653,58.6367204 -1.39714653,55.9638803 L-1.39714653,22.4289762 C-1.39714653,19.7561361 0.0253159257,17.2852799 2.33673792,15.9431166 L31.1616507,-0.794518802 C33.4903358,-2.14670611 36.3651968,-2.14670611 38.6938818,-0.794518802 Z" id="Path" stroke="#FFFFFF" stroke-width="3"></path>
                <g id="Group-2" transform="translate(3.000000, 2.000000)">
                    <mask id="mask-2" fill="white">
                        <use xlink:href="#path-1"></use>
                    </mask>
                    <use id="color-copy-5" fill="#639AE0" style="mix-blend-mode: multiply;" xlink:href="#path-1"></use>
                    <g id="Group-3" mask="url(#mask-2)">
                        <polygon id="Polygon-2" fill="#FFFFFF" points="31.9971515 0.399065523 63.5066442 18.6964699 31.9299552 36.9938743 0.487658811 18.6964699"></polygon>
                        <polygon id="Polygon-2-Copy" fill="#E6E6E6" points="63.5066442 18.6964699 63.5066442 55.2912786 31.9971515 73.588683 31.9299552 36.9060962"></polygon>
                        <polygon id="Polygon-2-Copy-2" fill="#D2D2D2" points="31.9971515 36.9669845 31.9971515 73.588683 0.487658811 55.2912786 0.487658811 18.6964699"></polygon>
                    </g>
                    <path d="M0.462687557,24.5129381 L0.462687557,24.5129381 C0.462687557,20.9530856 2.35515371,17.6616284 5.43167627,15.8706626 L5.43167627,15.8706626 L26.9085824,3.3681038 C30.0131655,1.56080287 33.8486021,1.55760646 36.9561932,3.35973021 L36.9561932,3.35973021 L44.3135813,7.62635453 C44.464238,7.71372186 44.5894657,7.83892014 44.6768684,7.98955627 C44.9540398,8.46725332 44.7914816,9.07919509 44.3137845,9.35636646 L44.3137845,9.35636646 L14.7462686,26.5121536 C14.437918,26.6910661 14.2481318,27.020604 14.2481318,27.3771006 L14.2481318,27.3771006 L14.2481318,34.2021978 C14.2481318,34.3790324 14.2012401,34.5527046 14.1122374,34.7055084 C13.8342666,35.1827407 13.2220535,35.3442741 12.7448212,35.0663033 L12.7448212,35.0663033 L7.83976009,32.2092804 C7.68695633,32.1202777 7.51328408,32.073386 7.33644947,32.073386 C6.78416472,32.073386 6.33644947,32.5211012 6.33644947,33.073386 L6.33644947,33.073386 L6.33644947,51.1285211 C6.33644947,51.485636 6.52688891,51.8156475 6.83608404,51.9943354 L6.83608404,51.9943354 L13.7484972,55.9891095 C14.0576924,56.1677975 14.2481318,56.497809 14.2481318,56.8549239 L14.2481318,56.8549239 L14.2481318,61.5677867 C14.2481318,61.7447519 14.2011708,61.9185477 14.1120435,62.07143 C13.8338889,62.5485553 13.2216137,62.7098529 12.7444885,62.4316983 L12.7444885,62.4316983 L5.42625402,58.1653129 C2.35279176,56.3735454 0.462687557,53.0838079 0.462687557,49.5261962 L0.462687557,49.5261962 L0.462687557,24.5129381 Z M18.1393637,65.0062246 L18.1393637,29.6474941 L18.1393637,29.6474941 C18.1393637,29.290301 18.3298859,28.9602295 18.6391879,28.7815702 L31.410394,21.4046549 L31.410394,21.4046549 C31.7212141,21.2251187 32.1044156,21.225942 32.4144614,21.406812 L45.1906357,28.8599906 C45.4978417,29.039204 45.6867439,29.3680989 45.6867439,29.7237574 L45.6867439,65.0097853 C45.6867439,65.3664642 45.4967652,65.6961419 45.1881655,65.8749884 L41.3482831,68.1003617 L41.3482831,68.1003617 C40.8704447,68.3772892 40.258586,68.2144187 39.9816585,67.7365802 C39.8933613,67.5842235 39.8468616,67.4112522 39.8468616,67.2351586 L39.8468616,50.2242246 L39.8468616,50.2242246 C39.8468616,49.6719399 39.3991463,49.2242246 38.8468616,49.2242246 C38.6696178,49.2242246 38.4955587,49.2713334 38.3425091,49.3607267 L32.4355463,52.81087 C32.1232802,52.9932586 31.736872,52.9928456 31.4249965,52.8097899 L25.5579655,49.366128 C25.0816654,49.0865629 24.4689156,49.2460483 24.1893505,49.7223484 C24.0992631,49.875832 24.0517683,50.0505767 24.0517683,50.2285457 L24.0517683,67.2458154 L24.0517683,67.2458154 C24.0517683,67.7981001 23.604053,68.2458154 23.0517683,68.2458154 C22.8774846,68.2458154 22.7062271,68.2002661 22.5549721,68.1136827 L18.6425675,65.8740919 L18.6425675,65.8740919 C18.3313623,65.6959476 18.1393637,65.3648108 18.1393637,65.0062246 L18.1393637,65.0062246 Z M63.3849309,23.2660689 L63.3849309,27.2571397 C63.3849309,27.6112623 63.1976433,27.9389764 62.8925346,28.1187303 L56.0019443,32.1783022 C55.6968356,32.3580562 55.5095481,32.6857703 55.5095481,33.0398929 L55.5095481,37.5123254 C55.5095481,38.0646101 55.9572633,38.5123254 56.5095481,38.5123254 C56.6853874,38.5123254 56.858118,38.4659597 57.0103208,38.3779042 L61.8841581,35.5581897 C62.3622041,35.2816206 62.9739405,35.4449498 63.2505097,35.9229958 C63.3385652,36.0751986 63.3849309,36.2479292 63.3849309,36.4237685 L63.3849309,49.5169271 L63.3849309,49.5169271 C63.3849309,53.0773161 61.4918989,56.3691851 58.4146434,58.1599585 L51.1470928,62.3892258 L51.1470928,62.3892258 C50.6697514,62.6670092 50.0576018,62.5052354 49.7798184,62.0278939 C49.6909427,61.8751703 49.6441216,61.7016241 49.6441216,61.5249227 L49.6441216,56.9948748 C49.6441216,56.6382279 49.8340666,56.3085747 50.1426226,56.1297166 L57.0087115,52.149709 L57.0087115,52.149709 C57.3172675,51.9708509 57.5072125,51.6411977 57.5072125,51.2845508 L57.5072125,46.7353367 C57.5072125,46.1830519 57.0594973,45.7353367 56.5072125,45.7353367 C56.3306224,45.7353367 56.1571815,45.7820988 56.004525,45.8708685 L51.1468091,48.6956261 C50.6693765,48.9732528 50.05728,48.8112781 49.7796534,48.3338455 C49.6908838,48.181189 49.6441216,48.007748 49.6441216,47.831158 L49.6441216,27.4313375 C49.6441216,27.0754662 49.4549951,26.746408 49.1474986,26.5672706 L37.2671938,19.6461953 C36.7899828,19.3681878 36.6284965,18.7559623 36.9065039,18.2787514 C36.9936463,18.129168 37.1181282,18.004769 37.2677696,17.9177263 L49.1415687,11.0110314 L49.1415687,11.0110314 C49.4522577,10.8303114 49.8360334,10.830229 50.1468,11.0108156 L59.4400533,16.4111307 L59.4400533,16.4111307 C61.8822108,17.8302699 63.3849309,20.4415177 63.3849309,23.2660689 L63.3849309,23.2660689 Z" id="color-copy-3" fill="#FFFFFF" style="mix-blend-mode: multiply;" mask="url(#mask-2)"></path>
                </g>
            </g>
        </g>
    </g>
</svg>